<svg width="51" height="47" viewBox="0 0 51 47" fill="none" xmlns="http://www.w3.org/2000/svg">
<path d="M0.244141 5.99507C0.244141 4.4368 0.807019 3.15125 1.93273 2.13843C3.05843 1.12555 4.52191 0.619141 6.32305 0.619141C8.09206 0.619141 9.5233 1.11775 10.6169 2.11505C11.7426 3.14349 12.3055 4.48355 12.3055 6.13531C12.3055 7.63123 11.7587 8.87779 10.6651 9.87509C9.53942 10.9035 8.05988 11.4178 6.22656 11.4178H6.17831C4.4093 11.4178 2.97806 10.9035 1.88448 9.87509C0.790905 8.84665 0.244141 7.5533 0.244141 5.99507ZM0.87133 46.8989V15.6718H11.5818V46.8989H0.87133ZM17.516 46.8989H28.2264V29.4622C28.2264 28.3714 28.3551 27.5299 28.6124 26.9378C29.0627 25.8782 29.7461 24.9822 30.6628 24.2499C31.5795 23.5175 32.7293 23.1513 34.1123 23.1513C37.7147 23.1513 39.5158 25.5042 39.5158 30.2101V46.8989H50.2263V28.9947C50.2263 24.3823 49.1006 20.8841 46.8491 18.5C44.5976 16.1158 41.6225 14.9238 37.9237 14.9238C33.7746 14.9238 30.5422 16.6534 28.2264 20.1127V20.2062H28.1782L28.2264 20.1127V15.6718H17.516C17.5803 16.669 17.6125 19.7699 17.6125 24.9744C17.6125 30.179 17.5803 37.4871 17.516 46.8989Z" fill="#292929"/>
</svg>
