<svg width="43" height="53" viewBox="0 0 43 53" fill="none" xmlns="http://www.w3.org/2000/svg">
<path d="M0.404663 19.2233C0.404663 17.0468 0.888747 14.8858 1.86242 12.7455C2.83608 10.6053 4.22783 8.61529 6.04314 6.78597C7.85845 4.95665 10.2404 3.46936 13.1944 2.32927C16.1484 1.18918 19.4215 0.619141 23.0136 0.619141C28.8446 0.619141 33.6304 2.31372 37.3711 5.69771C41.1117 9.08169 42.982 13.072 42.982 17.6686C42.982 23.5763 41.3978 28.458 38.2237 32.3084C35.0497 36.1588 30.9515 38.0865 25.9291 38.0865C24.2788 38.0865 22.7275 37.7238 21.2808 36.9983C19.834 36.2728 18.8164 35.3918 18.2278 34.3553L16.0274 42.5432C15.8458 43.2014 15.6038 43.8647 15.3122 44.5384C15.0207 45.2121 14.6961 45.8599 14.3496 46.4817C14.003 47.1036 13.651 47.6892 13.3044 48.2437C12.9578 48.7982 12.6058 49.3164 12.2592 49.7983C11.9127 50.2803 11.6101 50.6897 11.3516 51.0162C11.093 51.3426 10.8565 51.6277 10.6364 51.8712L10.3064 52.2858C10.1964 52.4257 10.0478 52.4775 9.8663 52.4413C9.68477 52.405 9.57475 52.3013 9.53625 52.1303C9.53625 52.0941 9.50874 51.8557 9.45373 51.4048C9.39872 50.954 9.34371 50.4824 9.2887 49.9797C9.23369 49.477 9.17868 48.8293 9.12367 48.0364C9.06866 47.2435 9.05216 46.4714 9.06866 45.7303C9.08517 44.9892 9.14018 44.1653 9.23369 43.2687C9.32721 42.3722 9.46473 41.5431 9.64627 40.7813C10.0478 39.1593 11.4066 33.749 13.717 24.561C13.4254 24.0065 13.1834 23.3431 13.0018 22.5658C12.8203 21.7885 12.7268 21.1562 12.7268 20.6743L12.6718 19.897C12.6718 17.6842 13.2659 15.8445 14.4596 14.3779C15.6533 12.9113 17.0891 12.1755 18.7778 12.1755C20.1366 12.1755 21.1873 12.6004 21.9409 13.4451C22.6945 14.2898 23.0686 15.3522 23.0686 16.6322C23.0686 17.4251 22.9146 18.4045 22.601 19.5601C22.2875 20.7158 21.8749 22.0476 21.3633 23.5504C20.8517 25.0533 20.4831 26.2711 20.2631 27.2039C19.8945 28.7586 20.2191 30.1059 21.2258 31.246C22.2324 32.3861 23.5802 32.9561 25.269 32.9561C28.168 32.9561 30.5609 31.4118 32.4477 28.3181C34.3345 25.2243 35.2807 21.4879 35.2807 17.0986C35.2807 13.7457 34.1255 11.0095 31.8151 8.88477C29.5047 6.76006 26.2756 5.69771 22.1334 5.69771C17.5126 5.69771 13.761 7.09691 10.884 9.8953C8.00698 12.6937 6.56573 16.0466 6.56573 19.9488C6.56573 22.2652 7.26435 24.2138 8.65609 25.8047C9.13468 26.3229 9.2777 26.8774 9.09617 27.463C9.02466 27.634 8.91464 28.033 8.76611 28.6549C8.61759 29.2768 8.50757 29.6758 8.43606 29.8468C8.36454 30.2251 8.17751 30.479 7.88596 30.5982C7.59441 30.7174 7.26435 30.7122 6.89579 30.5723C4.73391 29.7432 3.11113 28.3181 2.02744 26.297C0.943756 24.2759 0.404663 21.918 0.404663 19.2233Z" fill="#292929"/>
</svg>
